<?xml version="1.0" standalone="no"?>
<!DOCTYPE svg PUBLIC "-//W3C//DTD SVG 20010904//EN"
 "http://www.w3.org/TR/2001/REC-SVG-20010904/DTD/svg10.dtd">
<svg version="1.0" xmlns="http://www.w3.org/2000/svg"
 width="1521.000000pt" height="1521.000000pt" viewBox="0 0 1521.000000 1521.000000"
 preserveAspectRatio="xMidYMid meet">
<metadata>
Created by potrace 1.14, written by Peter Selinger 2001-2017
</metadata>
<g transform="translate(0.000000,1521.000000) scale(0.100000,-0.100000)"
fill="#000000" stroke="none">
<path d="M7504 14878 c-54 -95 -103 -180 -109 -190 -37 -66 -246 -426 -280
-483 -23 -39 -54 -93 -69 -120 -15 -28 -37 -66 -48 -85 -11 -19 -79 -136 -150
-260 -72 -124 -154 -265 -183 -315 -29 -49 -105 -182 -170 -295 -65 -113 -126
-218 -136 -235 -10 -16 -27 -46 -37 -65 -10 -19 -52 -91 -92 -160 -40 -68 -81
-138 -90 -155 -10 -16 -33 -57 -52 -90 -19 -33 -97 -168 -173 -300 -76 -132
-170 -294 -208 -360 -39 -66 -91 -156 -116 -200 -25 -44 -51 -89 -58 -100 -7
-11 -15 -27 -19 -35 -4 -8 -33 -58 -64 -110 -31 -52 -59 -102 -63 -110 -4 -8
-17 -31 -28 -50 -27 -44 -249 -428 -263 -455 -6 -11 -30 -51 -53 -90 -22 -38
-90 -155 -150 -260 -496 -860 -511 -886 -523 -905 -6 -8 -13 -22 -17 -30 -4
-8 -27 -49 -51 -90 -25 -41 -53 -88 -62 -105 -52 -91 -443 -769 -505 -875 -40
-69 -116 -201 -170 -295 -53 -93 -101 -174 -105 -180 -4 -5 -21 -35 -37 -65
-17 -30 -53 -92 -79 -138 -107 -181 -230 -421 -291 -567 -14 -33 -31 -73 -38
-90 -41 -89 -129 -344 -183 -530 -32 -108 -85 -337 -107 -460 -2 -16 -7 -41
-10 -55 -2 -13 -7 -40 -10 -60 -21 -149 -27 -191 -31 -235 -2 -27 -6 -63 -9
-80 -28 -204 -23 -763 10 -1020 8 -62 26 -201 31 -235 4 -28 29 -156 59 -305
24 -119 73 -290 145 -505 188 -563 477 -1080 875 -1565 179 -218 354 -394 640
-644 265 -232 759 -544 1110 -701 365 -164 792 -302 1095 -355 19 -3 53 -10
75 -15 55 -12 304 -47 390 -55 39 -4 88 -8 110 -11 300 -30 828 -13 1115 36
30 5 78 12 105 16 28 3 52 8 55 9 3 2 26 6 50 10 149 21 491 112 705 186 255
89 575 234 825 375 159 90 498 317 605 406 11 10 52 42 90 74 159 128 386 344
519 494 139 156 144 162 209 243 158 199 343 474 456 677 61 110 193 382 236
485 21 50 43 104 50 120 59 139 185 543 209 666 2 13 7 31 10 39 3 8 7 29 10
45 3 17 12 66 21 110 21 105 52 312 60 400 4 38 9 78 11 88 17 89 24 610 11
792 -11 151 -13 169 -33 325 -14 115 -29 206 -55 335 -12 55 -23 108 -25 119
-29 153 -131 484 -217 706 -62 161 -203 462 -266 568 -16 27 -42 74 -59 103
-16 30 -103 180 -192 334 -90 154 -176 305 -193 335 -17 30 -38 67 -49 82 -10
14 -18 28 -18 31 0 3 -42 76 -93 164 -51 87 -96 165 -100 173 -4 8 -17 31 -28
50 -23 37 -266 457 -304 525 -13 22 -46 81 -75 130 -29 50 -60 104 -70 120 -9
17 -43 75 -75 130 -32 55 -69 120 -83 145 -14 25 -36 62 -49 82 -12 21 -23 40
-23 43 0 3 -22 42 -50 86 -27 44 -50 82 -50 84 0 2 -28 52 -63 112 -35 59 -93
160 -129 223 -36 63 -75 131 -87 150 -11 19 -24 42 -28 50 -3 8 -9 17 -12 20
-3 3 -14 21 -25 40 -22 42 -23 43 -166 290 -62 107 -122 211 -132 230 -18 31
-95 163 -123 212 -5 9 -41 70 -78 135 -37 65 -80 139 -95 164 -64 111 -349
605 -373 647 -14 26 -65 115 -114 197 -48 83 -101 175 -118 205 -16 30 -36 62
-43 71 -8 8 -14 19 -14 23 0 4 -31 60 -69 124 -37 64 -146 252 -241 417 -95
165 -180 311 -188 325 -9 14 -17 27 -17 30 0 3 -8 16 -16 30 -9 14 -77 131
-151 260 -404 702 -552 956 -558 963 -3 4 -51 -70 -106 -165z m-339 -4454 c10
-189 73 -402 177 -593 38 -71 130 -214 200 -312 35 -48 248 -320 258 -329 3
-3 21 -25 40 -50 19 -25 37 -47 40 -50 4 -3 51 -66 107 -140 190 -256 296
-433 406 -680 38 -86 83 -216 128 -370 21 -74 52 -233 64 -335 37 -295 248
-608 485 -717 65 -31 162 -47 250 -43 126 5 162 17 249 83 72 55 127 122 168
208 44 92 61 179 57 284 l-3 85 107 -112 c59 -62 119 -127 134 -145 15 -18 44
-53 64 -78 345 -420 592 -986 670 -1535 3 -16 6 -39 9 -50 26 -127 27 -727 0
-825 -2 -8 -6 -35 -9 -60 -7 -53 -13 -89 -26 -150 -5 -25 -12 -56 -14 -70 -15
-90 -93 -347 -148 -485 -159 -402 -391 -755 -703 -1071 -380 -385 -828 -658
-1336 -814 -111 -34 -293 -77 -399 -95 -19 -3 -46 -7 -60 -10 -32 -6 -111 -15
-220 -25 -89 -8 -553 -5 -605 4 -16 3 -50 8 -75 11 -25 3 -54 8 -65 9 -11 2
-42 7 -70 11 -123 18 -389 89 -530 141 -695 260 -1271 741 -1663 1390 -192
318 -354 755 -407 1094 -33 213 -40 301 -40 530 0 177 8 329 20 384 3 12 7 39
9 61 3 22 10 69 17 104 l12 63 34 -78 c106 -245 178 -383 286 -552 32 -50 63
-92 68 -92 5 0 9 -5 9 -10 0 -14 41 -61 124 -143 149 -148 337 -242 531 -266
71 -9 245 -7 300 3 106 19 140 27 196 46 243 82 452 265 592 518 83 150 183
429 201 562 3 25 8 56 11 70 17 84 23 311 11 440 -15 169 -80 428 -142 568
-37 84 -109 229 -129 262 -12 19 -33 55 -47 80 -14 25 -39 70 -56 100 -87 154
-182 412 -226 615 -26 118 -28 137 -43 285 -17 165 -8 405 22 590 30 185 108
460 171 598 13 29 24 55 24 58 0 12 125 254 176 341 110 188 262 395 409 558
141 157 160 175 169 172 5 -2 10 -21 11 -43z"/>
</g>
</svg>
